<mxfile host="app.diagrams.net" modified="2023-04-28T03:06:40.918Z" agent="Mozilla/5.0 (Windows NT 10.0; Win64; x64) AppleWebKit/537.36 (KHTML, like Gecko) Chrome/110.0.0.0 Safari/537.36" version="21.2.2" etag="_91qawqxciTrVbLQ2540" type="device">
  <diagram id="mOqRyqZY4AtXeoGfU-2w" name="Trang-1">
    <mxGraphModel dx="2012" dy="1170" grid="0" gridSize="10" guides="1" tooltips="1" connect="1" arrows="1" fold="1" page="0" pageScale="1" pageWidth="827" pageHeight="1169" math="0" shadow="0">
      <root>
        <mxCell id="0" />
        <mxCell id="1" parent="0" />
        <mxCell id="17zNYWtkWAYYQnQToLRX-8" value="" style="edgeStyle=orthogonalEdgeStyle;rounded=0;orthogonalLoop=1;jettySize=auto;html=1;" edge="1" parent="1" source="17zNYWtkWAYYQnQToLRX-1" target="17zNYWtkWAYYQnQToLRX-2">
          <mxGeometry relative="1" as="geometry" />
        </mxCell>
        <mxCell id="17zNYWtkWAYYQnQToLRX-1" value="start" style="ellipse;whiteSpace=wrap;html=1;" vertex="1" parent="1">
          <mxGeometry x="130" y="20" width="120" height="80" as="geometry" />
        </mxCell>
        <mxCell id="17zNYWtkWAYYQnQToLRX-9" value="" style="edgeStyle=orthogonalEdgeStyle;rounded=0;orthogonalLoop=1;jettySize=auto;html=1;" edge="1" parent="1" source="17zNYWtkWAYYQnQToLRX-2" target="17zNYWtkWAYYQnQToLRX-3">
          <mxGeometry relative="1" as="geometry" />
        </mxCell>
        <mxCell id="17zNYWtkWAYYQnQToLRX-2" value="chọn lịch khám" style="shape=parallelogram;perimeter=parallelogramPerimeter;whiteSpace=wrap;html=1;fixedSize=1;" vertex="1" parent="1">
          <mxGeometry x="130" y="170" width="120" height="60" as="geometry" />
        </mxCell>
        <mxCell id="17zNYWtkWAYYQnQToLRX-10" value="" style="edgeStyle=orthogonalEdgeStyle;rounded=0;orthogonalLoop=1;jettySize=auto;html=1;" edge="1" parent="1" source="17zNYWtkWAYYQnQToLRX-3" target="17zNYWtkWAYYQnQToLRX-5">
          <mxGeometry relative="1" as="geometry" />
        </mxCell>
        <mxCell id="17zNYWtkWAYYQnQToLRX-11" value="" style="edgeStyle=orthogonalEdgeStyle;rounded=0;orthogonalLoop=1;jettySize=auto;html=1;" edge="1" parent="1" source="17zNYWtkWAYYQnQToLRX-3" target="17zNYWtkWAYYQnQToLRX-4">
          <mxGeometry relative="1" as="geometry" />
        </mxCell>
        <mxCell id="17zNYWtkWAYYQnQToLRX-3" value="lịch có trống không?" style="rhombus;whiteSpace=wrap;html=1;" vertex="1" parent="1">
          <mxGeometry x="145" y="280" width="90" height="80" as="geometry" />
        </mxCell>
        <mxCell id="17zNYWtkWAYYQnQToLRX-4" value="thông báo lịch không khả dụng" style="shape=parallelogram;perimeter=parallelogramPerimeter;whiteSpace=wrap;html=1;fixedSize=1;" vertex="1" parent="1">
          <mxGeometry x="310" y="290" width="110" height="60" as="geometry" />
        </mxCell>
        <mxCell id="17zNYWtkWAYYQnQToLRX-12" value="" style="edgeStyle=orthogonalEdgeStyle;rounded=0;orthogonalLoop=1;jettySize=auto;html=1;" edge="1" parent="1" source="17zNYWtkWAYYQnQToLRX-5" target="17zNYWtkWAYYQnQToLRX-6">
          <mxGeometry relative="1" as="geometry" />
        </mxCell>
        <mxCell id="17zNYWtkWAYYQnQToLRX-5" value="hiển thị form nhập theo từng loại khám + trạng thái lịch đã chọn =&amp;gt; pending 15p" style="rounded=0;whiteSpace=wrap;html=1;" vertex="1" parent="1">
          <mxGeometry x="130" y="400" width="120" height="60" as="geometry" />
        </mxCell>
        <mxCell id="17zNYWtkWAYYQnQToLRX-6" value="finish" style="ellipse;whiteSpace=wrap;html=1;" vertex="1" parent="1">
          <mxGeometry x="130" y="530" width="120" height="80" as="geometry" />
        </mxCell>
        <mxCell id="17zNYWtkWAYYQnQToLRX-15" value="" style="endArrow=classic;html=1;rounded=0;entryX=1;entryY=0.5;entryDx=0;entryDy=0;exitX=0.5;exitY=0;exitDx=0;exitDy=0;" edge="1" parent="1" source="17zNYWtkWAYYQnQToLRX-4" target="17zNYWtkWAYYQnQToLRX-2">
          <mxGeometry width="50" height="50" relative="1" as="geometry">
            <mxPoint x="340" y="240" as="sourcePoint" />
            <mxPoint x="390" y="190" as="targetPoint" />
            <Array as="points">
              <mxPoint x="365" y="200" />
            </Array>
          </mxGeometry>
        </mxCell>
        <mxCell id="17zNYWtkWAYYQnQToLRX-16" value="Text" style="text;html=1;strokeColor=none;fillColor=none;align=center;verticalAlign=middle;whiteSpace=wrap;rounded=0;" vertex="1" parent="1">
          <mxGeometry x="380" y="300" width="60" height="30" as="geometry" />
        </mxCell>
        <mxCell id="17zNYWtkWAYYQnQToLRX-17" value="No" style="text;html=1;align=center;verticalAlign=middle;resizable=0;points=[];autosize=1;strokeColor=none;fillColor=none;" vertex="1" parent="1">
          <mxGeometry x="230" y="288" width="40" height="30" as="geometry" />
        </mxCell>
        <mxCell id="17zNYWtkWAYYQnQToLRX-18" value="Yes" style="text;html=1;align=center;verticalAlign=middle;resizable=0;points=[];autosize=1;strokeColor=none;fillColor=none;" vertex="1" parent="1">
          <mxGeometry x="195" y="360" width="40" height="30" as="geometry" />
        </mxCell>
        <mxCell id="17zNYWtkWAYYQnQToLRX-33" value="" style="edgeStyle=orthogonalEdgeStyle;rounded=0;orthogonalLoop=1;jettySize=auto;html=1;" edge="1" parent="1" source="17zNYWtkWAYYQnQToLRX-19" target="17zNYWtkWAYYQnQToLRX-20">
          <mxGeometry relative="1" as="geometry" />
        </mxCell>
        <mxCell id="17zNYWtkWAYYQnQToLRX-19" value="start" style="ellipse;whiteSpace=wrap;html=1;" vertex="1" parent="1">
          <mxGeometry x="730" y="20" width="120" height="80" as="geometry" />
        </mxCell>
        <mxCell id="17zNYWtkWAYYQnQToLRX-34" value="" style="edgeStyle=orthogonalEdgeStyle;rounded=0;orthogonalLoop=1;jettySize=auto;html=1;" edge="1" parent="1" source="17zNYWtkWAYYQnQToLRX-20" target="17zNYWtkWAYYQnQToLRX-21">
          <mxGeometry relative="1" as="geometry" />
        </mxCell>
        <mxCell id="17zNYWtkWAYYQnQToLRX-20" value="chọn loại khám" style="shape=parallelogram;perimeter=parallelogramPerimeter;whiteSpace=wrap;html=1;fixedSize=1;" vertex="1" parent="1">
          <mxGeometry x="730" y="160" width="120" height="60" as="geometry" />
        </mxCell>
        <mxCell id="17zNYWtkWAYYQnQToLRX-32" value="" style="edgeStyle=orthogonalEdgeStyle;rounded=0;orthogonalLoop=1;jettySize=auto;html=1;" edge="1" parent="1" source="17zNYWtkWAYYQnQToLRX-21" target="17zNYWtkWAYYQnQToLRX-25">
          <mxGeometry relative="1" as="geometry" />
        </mxCell>
        <mxCell id="17zNYWtkWAYYQnQToLRX-35" value="" style="edgeStyle=orthogonalEdgeStyle;rounded=0;orthogonalLoop=1;jettySize=auto;html=1;" edge="1" parent="1" source="17zNYWtkWAYYQnQToLRX-21" target="17zNYWtkWAYYQnQToLRX-22">
          <mxGeometry relative="1" as="geometry" />
        </mxCell>
        <mxCell id="17zNYWtkWAYYQnQToLRX-21" value="đã từng khám?" style="rhombus;whiteSpace=wrap;html=1;" vertex="1" parent="1">
          <mxGeometry x="750" y="270" width="80" height="80" as="geometry" />
        </mxCell>
        <mxCell id="17zNYWtkWAYYQnQToLRX-36" value="" style="edgeStyle=orthogonalEdgeStyle;rounded=0;orthogonalLoop=1;jettySize=auto;html=1;" edge="1" parent="1" source="17zNYWtkWAYYQnQToLRX-22" target="17zNYWtkWAYYQnQToLRX-23">
          <mxGeometry relative="1" as="geometry" />
        </mxCell>
        <mxCell id="17zNYWtkWAYYQnQToLRX-22" value="nhập mail và lý do khám" style="shape=parallelogram;perimeter=parallelogramPerimeter;whiteSpace=wrap;html=1;fixedSize=1;" vertex="1" parent="1">
          <mxGeometry x="920" y="280" width="120" height="60" as="geometry" />
        </mxCell>
        <mxCell id="17zNYWtkWAYYQnQToLRX-37" value="" style="edgeStyle=orthogonalEdgeStyle;rounded=0;orthogonalLoop=1;jettySize=auto;html=1;" edge="1" parent="1" source="17zNYWtkWAYYQnQToLRX-23" target="17zNYWtkWAYYQnQToLRX-24">
          <mxGeometry relative="1" as="geometry" />
        </mxCell>
        <mxCell id="17zNYWtkWAYYQnQToLRX-23" value="check mail có tồn tại không?" style="rhombus;whiteSpace=wrap;html=1;" vertex="1" parent="1">
          <mxGeometry x="925" y="390" width="110" height="80" as="geometry" />
        </mxCell>
        <mxCell id="17zNYWtkWAYYQnQToLRX-24" value="thông báo không tìm thấy mail" style="shape=parallelogram;perimeter=parallelogramPerimeter;whiteSpace=wrap;html=1;fixedSize=1;" vertex="1" parent="1">
          <mxGeometry x="1100" y="400" width="120" height="60" as="geometry" />
        </mxCell>
        <mxCell id="17zNYWtkWAYYQnQToLRX-39" value="" style="edgeStyle=orthogonalEdgeStyle;rounded=0;orthogonalLoop=1;jettySize=auto;html=1;" edge="1" parent="1" source="17zNYWtkWAYYQnQToLRX-25" target="17zNYWtkWAYYQnQToLRX-26">
          <mxGeometry relative="1" as="geometry" />
        </mxCell>
        <mxCell id="17zNYWtkWAYYQnQToLRX-25" value="hiển thị form nhập thông tin" style="shape=parallelogram;perimeter=parallelogramPerimeter;whiteSpace=wrap;html=1;fixedSize=1;" vertex="1" parent="1">
          <mxGeometry x="730" y="400" width="120" height="60" as="geometry" />
        </mxCell>
        <mxCell id="17zNYWtkWAYYQnQToLRX-40" value="" style="edgeStyle=orthogonalEdgeStyle;rounded=0;orthogonalLoop=1;jettySize=auto;html=1;" edge="1" parent="1" source="17zNYWtkWAYYQnQToLRX-26" target="17zNYWtkWAYYQnQToLRX-27">
          <mxGeometry relative="1" as="geometry" />
        </mxCell>
        <mxCell id="17zNYWtkWAYYQnQToLRX-45" value="" style="edgeStyle=orthogonalEdgeStyle;rounded=0;orthogonalLoop=1;jettySize=auto;html=1;" edge="1" parent="1" source="17zNYWtkWAYYQnQToLRX-26" target="17zNYWtkWAYYQnQToLRX-44">
          <mxGeometry relative="1" as="geometry" />
        </mxCell>
        <mxCell id="17zNYWtkWAYYQnQToLRX-26" value="còn thời gian giao dịch" style="rhombus;whiteSpace=wrap;html=1;" vertex="1" parent="1">
          <mxGeometry x="750" y="505" width="80" height="80" as="geometry" />
        </mxCell>
        <mxCell id="17zNYWtkWAYYQnQToLRX-41" value="" style="edgeStyle=orthogonalEdgeStyle;rounded=0;orthogonalLoop=1;jettySize=auto;html=1;" edge="1" parent="1" source="17zNYWtkWAYYQnQToLRX-27" target="17zNYWtkWAYYQnQToLRX-28">
          <mxGeometry relative="1" as="geometry" />
        </mxCell>
        <mxCell id="17zNYWtkWAYYQnQToLRX-27" value="gửi link xác thực qua mail + reset trạng thái ca khám pending 5p" style="rounded=0;whiteSpace=wrap;html=1;" vertex="1" parent="1">
          <mxGeometry x="730" y="610" width="120" height="60" as="geometry" />
        </mxCell>
        <mxCell id="17zNYWtkWAYYQnQToLRX-42" value="" style="edgeStyle=orthogonalEdgeStyle;rounded=0;orthogonalLoop=1;jettySize=auto;html=1;" edge="1" parent="1" source="17zNYWtkWAYYQnQToLRX-28" target="17zNYWtkWAYYQnQToLRX-31">
          <mxGeometry relative="1" as="geometry" />
        </mxCell>
        <mxCell id="17zNYWtkWAYYQnQToLRX-28" value="xác thực trong 5p?" style="rhombus;whiteSpace=wrap;html=1;" vertex="1" parent="1">
          <mxGeometry x="730" y="710" width="120" height="80" as="geometry" />
        </mxCell>
        <mxCell id="17zNYWtkWAYYQnQToLRX-30" value="finish" style="ellipse;whiteSpace=wrap;html=1;" vertex="1" parent="1">
          <mxGeometry x="730" y="930" width="120" height="80" as="geometry" />
        </mxCell>
        <mxCell id="17zNYWtkWAYYQnQToLRX-43" value="" style="edgeStyle=orthogonalEdgeStyle;rounded=0;orthogonalLoop=1;jettySize=auto;html=1;" edge="1" parent="1" source="17zNYWtkWAYYQnQToLRX-31" target="17zNYWtkWAYYQnQToLRX-30">
          <mxGeometry relative="1" as="geometry" />
        </mxCell>
        <mxCell id="17zNYWtkWAYYQnQToLRX-31" value="thông báo đặt lịch thành công" style="shape=parallelogram;perimeter=parallelogramPerimeter;whiteSpace=wrap;html=1;fixedSize=1;" vertex="1" parent="1">
          <mxGeometry x="730" y="830" width="120" height="60" as="geometry" />
        </mxCell>
        <mxCell id="17zNYWtkWAYYQnQToLRX-38" value="" style="endArrow=classic;html=1;rounded=0;entryX=1;entryY=0.5;entryDx=0;entryDy=0;exitX=0.5;exitY=0;exitDx=0;exitDy=0;" edge="1" parent="1" source="17zNYWtkWAYYQnQToLRX-24" target="17zNYWtkWAYYQnQToLRX-22">
          <mxGeometry width="50" height="50" relative="1" as="geometry">
            <mxPoint x="1110" y="350" as="sourcePoint" />
            <mxPoint x="1160" y="300" as="targetPoint" />
            <Array as="points">
              <mxPoint x="1160" y="310" />
            </Array>
          </mxGeometry>
        </mxCell>
        <mxCell id="17zNYWtkWAYYQnQToLRX-44" value="thông báo hết thời gian giao dịch" style="shape=parallelogram;perimeter=parallelogramPerimeter;whiteSpace=wrap;html=1;fixedSize=1;" vertex="1" parent="1">
          <mxGeometry x="550" y="515" width="120" height="60" as="geometry" />
        </mxCell>
        <mxCell id="17zNYWtkWAYYQnQToLRX-46" value="" style="endArrow=classic;html=1;rounded=0;exitX=0;exitY=0.5;exitDx=0;exitDy=0;entryX=1;entryY=0.5;entryDx=0;entryDy=0;" edge="1" parent="1" source="17zNYWtkWAYYQnQToLRX-28" target="17zNYWtkWAYYQnQToLRX-44">
          <mxGeometry width="50" height="50" relative="1" as="geometry">
            <mxPoint x="570" y="770" as="sourcePoint" />
            <mxPoint x="700" y="550" as="targetPoint" />
            <Array as="points">
              <mxPoint x="660" y="750" />
            </Array>
          </mxGeometry>
        </mxCell>
        <mxCell id="17zNYWtkWAYYQnQToLRX-47" value="" style="endArrow=classic;html=1;rounded=0;entryX=0;entryY=0.5;entryDx=0;entryDy=0;exitX=0.5;exitY=1;exitDx=0;exitDy=0;" edge="1" parent="1" source="17zNYWtkWAYYQnQToLRX-44" target="17zNYWtkWAYYQnQToLRX-30">
          <mxGeometry width="50" height="50" relative="1" as="geometry">
            <mxPoint x="450" y="780" as="sourcePoint" />
            <mxPoint x="500" y="730" as="targetPoint" />
            <Array as="points">
              <mxPoint x="610" y="970" />
            </Array>
          </mxGeometry>
        </mxCell>
      </root>
    </mxGraphModel>
  </diagram>
</mxfile>
